<?xml version="1.0" standalone="no"?>
<!DOCTYPE svg PUBLIC "-//W3C//DTD SVG 20010904//EN"
 "http://www.w3.org/TR/2001/REC-SVG-20010904/DTD/svg10.dtd">
<svg version="1.0" xmlns="http://www.w3.org/2000/svg"
 width="756.000000pt" height="756.000000pt" viewBox="0 0 756.000000 756.000000"
 preserveAspectRatio="xMidYMid meet">
<metadata>
Created by potrace 1.14, written by Peter Selinger 2001-2017
</metadata>
<g transform="translate(0.000000,756.000000) scale(0.100000,-0.100000)"
fill="#000000" stroke="none">
<path d="M1478 7384 c-3 -3 12 -33 33 -67 22 -34 45 -73 51 -87 7 -14 21 -38
33 -55 21 -32 25 -38 80 -130 20 -33 46 -76 58 -96 12 -20 63 -104 112 -185
50 -82 93 -150 98 -152 4 -2 7 -8 7 -12 0 -7 96 -168 130 -220 6 -8 13 -23 16
-32 4 -10 10 -18 15 -18 5 0 9 -4 9 -10 0 -5 20 -41 45 -80 25 -39 45 -72 45
-74 0 -3 23 -42 52 -88 75 -121 208 -338 228 -373 30 -51 271 -448 295 -485
12 -19 60 -98 106 -175 46 -77 87 -141 92 -143 4 -2 7 -7 7 -12 0 -5 23 -45
50 -89 28 -44 50 -85 50 -90 0 -5 4 -11 8 -13 5 -1 24 -29 43 -62 19 -32 44
-75 57 -95 12 -20 25 -43 29 -51 4 -8 9 -17 12 -20 11 -9 71 -111 71 -120 0
-5 3 -10 8 -12 6 -2 148 -232 207 -336 42 -72 91 -148 99 -154 6 -4 7 -8 2 -8
-5 0 -2 -8 6 -17 12 -14 112 -178 163 -265 21 -37 162 -267 217 -355 32 -51
58 -94 58 -97 0 -3 17 -31 38 -63 21 -32 42 -65 45 -73 4 -8 16 -28 27 -45 11
-16 26 -41 34 -55 38 -66 217 -356 226 -367 5 -7 10 -14 10 -17 0 -4 105 -179
189 -316 5 -8 53 -87 107 -175 53 -88 117 -187 142 -220 95 -127 247 -216 407
-241 55 -8 872 -12 885 -4 7 4 -270 474 -299 507 -6 7 -11 15 -11 20 0 4 -11
23 -24 42 -50 75 -276 451 -276 460 0 5 -3 11 -8 13 -7 3 -92 135 -92 143 0 2
-45 76 -100 165 -55 89 -100 165 -100 170 0 5 -4 10 -8 12 -5 2 -22 26 -38 55
-28 50 -123 206 -263 433 -39 63 -80 133 -92 155 -12 22 -24 42 -28 45 -3 3
-40 61 -81 130 -41 69 -119 196 -172 283 -54 87 -98 160 -98 162 0 2 -30 53
-67 113 -84 133 -81 129 -140 227 -26 44 -57 94 -68 112 -11 18 -62 101 -113
185 -51 84 -133 218 -182 298 -49 80 -97 160 -106 178 -9 17 -21 32 -27 32 -6
0 -8 3 -4 6 3 3 -26 55 -64 115 -38 61 -69 114 -69 119 0 6 -4 10 -8 10 -4 0
-13 12 -19 28 -7 15 -29 54 -50 87 -22 33 -89 143 -152 245 -62 102 -117 192
-122 200 -97 158 -189 313 -189 320 0 6 -4 10 -9 10 -5 0 -18 19 -30 43 -23
46 -43 79 -52 87 -3 3 -9 12 -13 20 -4 8 -12 24 -19 35 -7 11 -32 52 -55 90
-24 39 -48 79 -55 90 -73 121 -150 211 -227 267 -49 36 -137 83 -185 98 -22 7
-46 17 -52 23 -7 5 -13 7 -13 5 0 -3 -24 0 -53 7 -55 13 -857 21 -869 9z"/>
<path d="M5288 7385 c-2 -2 -19 -5 -38 -8 -19 -3 -47 -8 -61 -11 -57 -12 -196
-78 -227 -107 -12 -10 -24 -19 -28 -19 -24 0 -141 -147 -219 -274 -49 -81 -94
-153 -100 -159 -5 -7 -19 -28 -29 -47 -11 -19 -92 -152 -181 -295 -89 -143
-184 -296 -210 -340 -26 -44 -62 -102 -80 -130 -34 -53 -173 -278 -190 -307
-5 -10 -36 -60 -67 -111 -32 -51 -58 -96 -58 -98 0 -5 399 -2 526 3 22 1 45
-1 51 -5 5 -4 13 -4 16 -1 3 3 72 7 154 9 164 4 236 20 345 75 146 75 223 157
361 390 36 62 53 91 103 172 160 262 339 558 356 588 11 19 25 42 32 50 12 15
217 355 246 407 8 16 17 30 20 33 9 9 110 178 110 184 0 6 -826 6 -832 1z"/>
<path d="M3087 3554 c-1 -1 -40 -4 -87 -7 -172 -12 -288 -55 -422 -158 -86
-66 -140 -132 -234 -289 -38 -63 -72 -116 -76 -118 -5 -2 -8 -8 -8 -14 0 -5
-13 -29 -30 -53 -16 -24 -30 -48 -30 -54 0 -6 -4 -11 -10 -11 -5 0 -10 -5 -10
-10 0 -9 -30 -60 -144 -242 -20 -31 -36 -61 -36 -66 0 -6 -3 -12 -7 -14 -10
-4 -73 -107 -73 -119 0 -5 -4 -9 -8 -9 -5 0 -16 -15 -25 -32 -9 -18 -21 -40
-26 -48 -36 -56 -132 -214 -157 -257 -16 -29 -32 -53 -36 -53 -5 0 -8 -4 -8
-9 0 -12 -161 -275 -171 -279 -5 -2 -9 -10 -9 -18 0 -8 -16 -37 -35 -64 -19
-28 -33 -50 -29 -50 3 0 -2 -7 -10 -16 -21 -20 -20 -31 2 -35 30 -7 825 -2
867 5 199 33 364 141 479 313 26 37 46 73 46 80 0 7 4 13 9 13 5 0 14 14 21
30 7 17 16 30 21 30 5 0 8 3 7 8 -1 4 5 18 14 32 61 96 88 142 88 150 0 6 5
10 10 10 6 0 10 4 10 9 0 5 85 148 188 318 284 463 473 773 499 818 13 22 29
49 36 59 58 94 86 141 83 144 -4 3 -695 9 -699 6z"/>
<path d="M5762 1110 c-5 -14 -7 -29 -4 -34 7 -13 7 -70 -1 -83 -4 -6 -4 -13 0
-16 8 -9 7 -102 -1 -116 -4 -6 -4 -11 1 -11 7 0 9 -57 3 -85 -1 -5 -1 -12 0
-15 6 -16 4 -110 -3 -110 -5 0 -5 -5 -1 -11 5 -9 8 -96 5 -149 -1 -8 -37 23
-82 70 -45 47 -125 130 -178 186 -53 55 -156 164 -230 242 -74 78 -137 140
-139 137 -10 -10 -7 -965 3 -968 6 -1 35 -3 65 -2 l55 0 2 315 c1 173 2 321 2
328 1 12 46 -32 206 -204 22 -23 90 -95 150 -160 169 -179 177 -188 225 -240
l45 -48 3 488 c1 269 1 491 -1 493 -5 4 -45 5 -77 1 -14 -2 -28 1 -32 6 -4 6
-11 0 -16 -14z"/>
<path d="M6676 1115 c-25 -7 -46 -10 -46 -8 0 2 -31 -12 -70 -32 -63 -34 -122
-83 -176 -147 -23 -27 -73 -129 -79 -160 -2 -11 -7 -28 -10 -39 -9 -28 -9
-137 0 -189 37 -218 241 -393 465 -399 152 -4 269 45 376 157 53 55 104 139
104 172 0 11 5 22 10 25 6 4 8 11 4 16 -3 5 -2 15 3 22 5 7 9 37 9 67 l-1 55
-225 0 -225 0 0 -59 0 -60 158 0 c178 0 172 4 119 -81 -102 -166 -290 -226
-461 -150 -63 29 -143 103 -168 158 -7 15 -18 38 -24 52 -13 26 -18 175 -8
215 22 83 106 183 191 226 95 48 222 49 310 2 77 -41 75 -41 118 3 22 23 40
44 40 48 0 6 -28 25 -91 64 -24 14 -81 33 -139 44 -50 10 -140 9 -184 -2z"/>
<path d="M310 1116 c0 -3 7 -12 16 -20 9 -9 17 -23 18 -30 1 -8 7 -20 12 -27
6 -8 25 -39 41 -69 17 -30 39 -71 50 -90 78 -134 103 -181 103 -190 0 -5 3
-10 8 -10 4 0 12 -11 18 -24 10 -21 2 -40 -69 -162 -43 -76 -95 -168 -115
-204 -19 -36 -40 -72 -46 -80 -6 -8 -17 -25 -24 -37 -11 -20 -10 -23 5 -24
135 -4 127 -6 148 26 11 17 27 44 35 60 8 17 17 32 21 35 3 3 13 21 23 40 26
52 50 94 57 100 4 3 9 14 13 25 3 11 14 30 24 43 l18 23 20 -38 c26 -48 175
-307 180 -312 4 -5 137 -2 141 3 3 3 -200 365 -227 406 -35 53 -40 69 -29 97
5 15 13 30 17 33 7 5 35 55 71 125 9 16 18 32 21 35 6 6 150 258 150 263 0 2
-33 3 -72 3 l-73 -1 -72 -125 c-39 -69 -77 -134 -85 -145 -7 -11 -11 -23 -10
-27 1 -5 -2 -8 -7 -8 -5 0 -11 -10 -15 -22 -3 -15 -9 -19 -15 -13 -5 6 -52 84
-104 175 l-95 165 -76 3 c-42 1 -76 0 -76 -2z"/>
<path d="M1771 1099 c-15 -38 -206 -488 -231 -544 -12 -27 -27 -61 -32 -75 -6
-14 -17 -38 -24 -55 -86 -202 -114 -268 -112 -271 3 -3 83 -6 114 -5 16 1 29
19 57 80 l36 79 206 -1 206 -2 34 -75 34 -75 71 -3 71 -3 -17 38 c-9 21 -30
72 -47 113 -17 41 -36 78 -41 82 -6 4 -8 8 -5 8 4 0 -16 53 -43 118 -28 64
-55 128 -61 142 -6 14 -11 27 -12 30 -2 6 -18 44 -51 118 -13 29 -24 55 -24
58 0 3 -8 24 -19 47 -10 23 -35 80 -56 127 -20 47 -38 87 -41 89 -2 2 -8 -7
-13 -20z m101 -513 c23 -61 47 -122 54 -135 7 -14 11 -28 9 -32 -7 -10 -305
-8 -305 2 0 5 4 17 10 27 5 9 32 76 60 147 28 72 58 147 67 168 l17 39 23 -52
c13 -29 42 -103 65 -164z"/>
<path d="M2603 1107 c-4 -6 -7 -223 -8 -482 l0 -470 35 -5 c19 -3 49 -3 66 -2
l31 4 -1 141 c-1 78 0 149 2 157 2 12 24 15 125 14 173 0 233 21 314 110 56
62 83 131 83 213 1 72 -4 94 -36 158 -18 35 -80 105 -94 105 -6 0 -10 4 -10 8
0 9 -61 41 -95 49 -11 3 -106 7 -212 9 -144 3 -194 1 -200 -9z m370 -124 c51
-8 131 -84 141 -133 12 -66 12 -75 -3 -120 -18 -56 -76 -115 -127 -129 -22 -6
-88 -9 -149 -8 l-109 2 -1 190 c0 105 1 193 3 198 4 9 192 9 245 0z"/>
<path d="M3649 1117 c-1 -1 -2 -219 -3 -484 l-1 -483 35 -1 c33 0 303 0 450 1
l66 0 0 63 0 63 -211 0 -210 0 0 419 0 420 -63 2 c-34 2 -63 2 -63 0z"/>
<path d="M4584 635 l0 -483 63 -4 c51 -2 63 0 64 12 1 8 2 227 2 485 l2 471
-65 1 -65 2 -1 -484z"/>
</g>
</svg>
