<?xml version="1.0" encoding="UTF-8" standalone="no"?>
<svg
   xmlns:dc="http://purl.org/dc/elements/1.1/"
   xmlns:cc="http://creativecommons.org/ns#"
   xmlns:rdf="http://www.w3.org/1999/02/22-rdf-syntax-ns#"
   xmlns:svg="http://www.w3.org/2000/svg"
   xmlns="http://www.w3.org/2000/svg"
   xmlns:xlink="http://www.w3.org/1999/xlink"
   xmlns:sodipodi="http://sodipodi.sourceforge.net/DTD/sodipodi-0.dtd"
   xmlns:inkscape="http://www.inkscape.org/namespaces/inkscape"
   width="93.984207mm"
   height="99.918442mm"
   viewBox="0 0 93.984207 99.918442"
   version="1.1"
   id="svg8"
   inkscape:version="1.0.1 (3bc2e813f5, 2020-09-07)"
   sodipodi:docname="xapling-logo-ohne-Text.svg">
  <defs
     id="defs2">
    <clipPath
       clipPathUnits="userSpaceOnUse"
       id="clipPath934">
      <path
         d="M 0,162 H 270 V 0 H 0 Z"
         id="path932" />
    </clipPath>
    <clipPath
       clipPathUnits="userSpaceOnUse"
       id="clipPath944">
      <path
         d="m -176.925,71.3218 h 353.85 V -71.3218 h -353.85 z"
         id="path942" />
    </clipPath>
    <clipPath
       clipPathUnits="userSpaceOnUse"
       id="clipPath976">
      <path
         d="m -176.925,71.3218 h 353.85 V -71.3218 h -353.85 z"
         id="path974" />
    </clipPath>
    <clipPath
       clipPathUnits="userSpaceOnUse"
       id="clipPath1008">
      <path
         d="m -176.925,71.3218 h 353.85 V -71.3218 h -353.85 z"
         id="path1006" />
    </clipPath>
    <clipPath
       clipPathUnits="userSpaceOnUse"
       id="clipPath1040">
      <path
         d="m -176.925,71.3218 h 353.85 V -71.3218 h -353.85 z"
         id="path1038" />
    </clipPath>
    <clipPath
       clipPathUnits="userSpaceOnUse"
       id="clipPath1072">
      <path
         d="m -176.925,71.3218 h 353.85 V -71.3218 h -353.85 z"
         id="path1070" />
    </clipPath>
    <clipPath
       clipPathUnits="userSpaceOnUse"
       id="clipPath1104">
      <path
         d="m -176.925,71.3218 h 353.85 V -71.3218 h -353.85 z"
         id="path1102" />
    </clipPath>
    <clipPath
       clipPathUnits="userSpaceOnUse"
       id="clipPath1136">
      <path
         d="m -176.925,71.3218 h 353.85 V -71.3218 h -353.85 z"
         id="path1134" />
    </clipPath>
    <clipPath
       clipPathUnits="userSpaceOnUse"
       id="clipPath1168">
      <path
         d="m -176.925,71.3218 h 353.85 V -71.3218 h -353.85 z"
         id="path1166" />
    </clipPath>
    <clipPath
       clipPathUnits="userSpaceOnUse"
       id="clipPath1570">
      <path
         d="M 0,345.827 H 345.827 V 0 H 0 Z"
         id="path1568" />
    </clipPath>
    <clipPath
       clipPathUnits="userSpaceOnUse"
       id="clipPath2580">
      <path
         d="M 0,345.827 H 345.827 V 0 H 0 Z"
         id="path2578" />
    </clipPath>
    <clipPath
       clipPathUnits="userSpaceOnUse"
       id="clipPath2638">
      <path
         d="M 0,345.827 H 345.827 V 0 H 0 Z"
         id="path2636" />
    </clipPath>
    <clipPath
       clipPathUnits="userSpaceOnUse"
       id="clipPath2654">
      <path
         d="m 195.485,228.958 h 1.772 v 7.998 1.015 l 8.648,-9.217 v 13.509 h -1.772 v -7.409 -1.577 l -8.648,9.093 z m -51.359,0.036 h 1.897 l 0.98,2.182 h 2.811 2.817 l 0.98,-2.182 h 1.896 l -5.69,13.367 z m 4.611,6.288 c 0.364,0.955 0.727,1.852 1.089,2.689 v 0 c 0.356,-0.837 0.715,-1.734 1.074,-2.689 v 0 c 0.357,-0.956 0.718,-1.85 1.081,-2.682 v 0 h -2.167 -2.161 c 0.356,0.832 0.718,1.726 1.084,2.682 m 66.712,6.571 c -0.801,-0.332 -1.525,-0.828 -2.172,-1.486 v 0 c -0.677,-0.683 -1.17,-1.411 -1.479,-2.183 v 0 c -0.326,-0.789 -0.49,-1.65 -0.49,-2.582 v 0 c 0,-0.938 0.164,-1.799 0.49,-2.583 v 0 c 0.309,-0.778 0.802,-1.502 1.479,-2.173 v 0 c 0.653,-0.658 1.377,-1.152 2.172,-1.478 v 0 c 0.772,-0.326 1.63,-0.49 2.574,-0.49 v 0 c 0.938,0 1.797,0.164 2.574,0.49 v 0 c 0.783,0.326 1.511,0.82 2.182,1.478 v 0 c 0.724,0.713 1.246,1.541 1.567,2.485 v 0 c 0.28,0.801 0.407,1.672 0.383,2.609 v 0 h -6.127 -0.151 v -1.648 h 3.535 0.882 l -0.375,-0.791 c -0.178,-0.375 -0.4,-0.722 -0.667,-1.043 v 0 c -0.255,-0.315 -0.558,-0.603 -0.908,-0.864 v 0 c -0.434,-0.314 -0.882,-0.542 -1.345,-0.686 v 0 c -0.493,-0.16 -1.001,-0.24 -1.523,-0.24 v 0 c -0.665,0 -1.294,0.122 -1.888,0.366 v 0 c -0.582,0.237 -1.113,0.599 -1.594,1.086 v 0 c -0.481,0.487 -0.841,1.018 -1.078,1.594 v 0 c -0.243,0.594 -0.365,1.223 -0.365,1.888 v 0 c 0,0.659 0.122,1.288 0.365,1.888 v 0 c 0.237,0.57 0.597,1.101 1.078,1.594 v 0 c 0.487,0.487 1.018,0.849 1.594,1.086 v 0 c 0.564,0.244 1.193,0.366 1.888,0.366 v 0 c 0.677,0 1.303,-0.122 1.879,-0.366 v 0 c 0.428,-0.183 0.822,-0.421 1.185,-0.712 v 0 l 1.264,1.273 c -0.226,0.178 -0.422,0.324 -0.587,0.437 v 0 c -0.375,0.249 -0.761,0.46 -1.159,0.632 v 0 c -0.386,0.167 -0.804,0.297 -1.255,0.392 v 0 c -0.428,0.089 -0.876,0.134 -1.345,0.134 v 0 h -0.4 l -0.009,0.017 c -0.796,-0.047 -1.52,-0.211 -2.174,-0.49 m -27.398,-12.859 h 1.772 v 13.243 h -1.772 z m -12.83,13.243 v -13.243 h 7.534 v 1.745 h -5.209 -0.553 v 0.562 10.936 z m -11.986,0 h -2.324 v -4.471 -5.022 -3.75 h 1.772 v 3.75 0.551 h 0.552 2.155 c 0.618,0 1.191,0.107 1.719,0.321 v 0 c 0.529,0.219 1.015,0.55 1.46,0.989 v 0 c 0.44,0.439 0.77,0.917 0.989,1.433 v 0 c 0.213,0.523 0.321,1.096 0.321,1.719 v 0 c 0,0.618 -0.108,1.19 -0.321,1.719 v 0 c -0.226,0.528 -0.558,1.009 -0.997,1.442 v 0 c -0.452,0.446 -0.935,0.775 -1.452,0.989 v 0 c -0.523,0.22 -1.095,0.33 -1.719,0.33 v 0 z m -0.552,-6.635 v 2.164 2.164 0.552 h 0.552 2.155 c 0.38,0 0.73,-0.068 1.051,-0.205 v 0 c 0.321,-0.136 0.612,-0.338 0.873,-0.605 v 0 c 0.273,-0.291 0.469,-0.585 0.587,-0.882 v 0 c 0.137,-0.309 0.205,-0.653 0.205,-1.033 v 0 c 0,-0.392 -0.068,-0.739 -0.205,-1.042 v 0 c -0.136,-0.32 -0.332,-0.614 -0.587,-0.882 v 0 c -0.279,-0.272 -0.573,-0.471 -0.882,-0.596 v 0 c -0.315,-0.131 -0.662,-0.196 -1.042,-0.196 v 0 l -2.155,0.008 h -0.552 z m -25.399,6.635 -2.298,-3.999 -0.481,-0.837 -0.481,0.837 -2.288,3.999 h -2.031 l 3.616,-6.342 0.161,-0.266 -0.161,-0.276 -3.625,-6.359 2.031,-0.009 2.297,4.008 0.481,0.846 0.481,-0.846 2.298,-3.999 h 2.031 l -3.634,6.35 -0.16,0.276 0.16,0.275 3.634,6.342 z"
         id="path2652" />
    </clipPath>
    <clipPath
       clipPathUnits="userSpaceOnUse"
       id="clipPath2666">
      <path
         d="M 0,345.827 H 345.827 V 0 H 0 Z"
         id="path2664" />
    </clipPath>
    <clipPath
       clipPathUnits="userSpaceOnUse"
       id="clipPath2698">
      <path
         d="M 1.585,172.913 C 1.585,78.292 78.292,1.586 172.913,1.586 v 0 c 94.622,0 171.328,76.706 171.328,171.327 v 0 c 0,94.623 -76.706,171.329 -171.328,171.329 v 0 C 78.292,344.242 1.585,267.536 1.585,172.913"
         id="path2696" />
    </clipPath>
    <clipPath
       clipPathUnits="userSpaceOnUse"
       id="clipPath2710">
      <path
         d="M 0,345.827 H 345.827 V 0 H 0 Z"
         id="path2708" />
    </clipPath>
    <clipPath
       clipPathUnits="userSpaceOnUse"
       id="clipPath3311">
      <path
         d="m 0,345.682 946.728,114.303 245.851,29.682 V 740.9 L 0,824.138 Z"
         id="path3309" />
    </clipPath>
    <clipPath
       clipPathUnits="userSpaceOnUse"
       id="clipPath3319">
      <path
         d="M -32768,32767 H 32767 V -32768 H -32768 Z"
         id="path3317" />
    </clipPath>
    <linearGradient
       x1="0"
       y1="0"
       x2="1"
       y2="0"
       gradientUnits="userSpaceOnUse"
       gradientTransform="matrix(1192.5789,0,0,-1192.5789,0,584.91028)"
       spreadMethod="pad"
       id="linearGradient3327">
      <stop
         style="stop-opacity:0.29999237;stop-color:#ffffff"
         offset="0"
         id="stop3321" />
      <stop
         style="stop-opacity:0.50000763;stop-color:#ffffff"
         offset="0.821429"
         id="stop3323" />
      <stop
         style="stop-opacity:0.50000763;stop-color:#ffffff"
         offset="1"
         id="stop3325" />
    </linearGradient>
    <mask
       maskUnits="userSpaceOnUse"
       x="0"
       y="0"
       width="1"
       height="1"
       id="mask3329">
      <g
         id="g3339">
        <g
           clip-path="url(#clipPath3319)"
           id="g3337">
          <g
             id="g3335">
            <g
               id="g3333">
              <path
                 d="M -32768,32767 H 32767 V -32768 H -32768 Z"
                 style="fill:url(#linearGradient3327);stroke:none"
                 id="path3331" />
            </g>
          </g>
        </g>
      </g>
    </mask>
    <linearGradient
       x1="0"
       y1="0"
       x2="1"
       y2="0"
       gradientUnits="userSpaceOnUse"
       gradientTransform="matrix(1192.5789,0,0,-1192.5789,0,584.91028)"
       spreadMethod="pad"
       id="linearGradient3351">
      <stop
         style="stop-opacity:1;stop-color:#ffffff"
         offset="0"
         id="stop3345" />
      <stop
         style="stop-opacity:1;stop-color:#ffffff"
         offset="0.821429"
         id="stop3347" />
      <stop
         style="stop-opacity:1;stop-color:#ffffff"
         offset="1"
         id="stop3349" />
    </linearGradient>
    <clipPath
       clipPathUnits="userSpaceOnUse"
       id="clipPath3379">
      <path
         d="M 0,276.857 V 0 h 891.227 l 646.335,444.334 -344.983,45.333 z"
         id="path3377" />
    </clipPath>
    <clipPath
       clipPathUnits="userSpaceOnUse"
       id="clipPath3387">
      <path
         d="M -32768,32767 H 32767 V -32768 H -32768 Z"
         id="path3385" />
    </clipPath>
    <linearGradient
       x1="0"
       y1="0"
       x2="1"
       y2="0"
       gradientUnits="userSpaceOnUse"
       gradientTransform="matrix(1537.5615,0,0,-1537.5615,0,244.83334)"
       spreadMethod="pad"
       id="linearGradient3395">
      <stop
         style="stop-opacity:0.09999237;stop-color:#ffffff"
         offset="0"
         id="stop3389" />
      <stop
         style="stop-opacity:0.4;stop-color:#ffffff"
         offset="0.821429"
         id="stop3391" />
      <stop
         style="stop-opacity:0.4;stop-color:#ffffff"
         offset="1"
         id="stop3393" />
    </linearGradient>
    <mask
       maskUnits="userSpaceOnUse"
       x="0"
       y="0"
       width="1"
       height="1"
       id="mask3397">
      <g
         id="g3407">
        <g
           clip-path="url(#clipPath3387)"
           id="g3405">
          <g
             id="g3403">
            <g
               id="g3401">
              <path
                 d="M -32768,32767 H 32767 V -32768 H -32768 Z"
                 style="fill:url(#linearGradient3395);stroke:none"
                 id="path3399" />
            </g>
          </g>
        </g>
      </g>
    </mask>
    <linearGradient
       x1="0"
       y1="0"
       x2="1"
       y2="0"
       gradientUnits="userSpaceOnUse"
       gradientTransform="matrix(1537.5615,0,0,-1537.5615,0,244.83334)"
       spreadMethod="pad"
       id="linearGradient3419">
      <stop
         style="stop-opacity:1;stop-color:#ffffff"
         offset="0"
         id="stop3413" />
      <stop
         style="stop-opacity:1;stop-color:#ffffff"
         offset="0.821429"
         id="stop3415" />
      <stop
         style="stop-opacity:1;stop-color:#ffffff"
         offset="1"
         id="stop3417" />
    </linearGradient>
    <clipPath
       clipPathUnits="userSpaceOnUse"
       id="clipPath3429">
      <path
         d="M 0,1080 V 894.919 L 1192.579,740.9 1537.562,784.398 1234.987,1080 Z"
         id="path3427" />
    </clipPath>
    <clipPath
       clipPathUnits="userSpaceOnUse"
       id="clipPath3437">
      <path
         d="M -32768,32767 H 32767 V -32768 H -32768 Z"
         id="path3435" />
    </clipPath>
    <linearGradient
       x1="0"
       y1="0"
       x2="1"
       y2="0"
       gradientUnits="userSpaceOnUse"
       gradientTransform="matrix(1537.5615,0,0,-1537.5615,0,910.44977)"
       spreadMethod="pad"
       id="linearGradient3445">
      <stop
         style="stop-opacity:0.09999237;stop-color:#ffffff"
         offset="0"
         id="stop3439" />
      <stop
         style="stop-opacity:0.4;stop-color:#ffffff"
         offset="0.821429"
         id="stop3441" />
      <stop
         style="stop-opacity:0.4;stop-color:#ffffff"
         offset="1"
         id="stop3443" />
    </linearGradient>
    <mask
       maskUnits="userSpaceOnUse"
       x="0"
       y="0"
       width="1"
       height="1"
       id="mask3447">
      <g
         id="g3457">
        <g
           clip-path="url(#clipPath3437)"
           id="g3455">
          <g
             id="g3453">
            <g
               id="g3451">
              <path
                 d="M -32768,32767 H 32767 V -32768 H -32768 Z"
                 style="fill:url(#linearGradient3445);stroke:none"
                 id="path3449" />
            </g>
          </g>
        </g>
      </g>
    </mask>
    <linearGradient
       x1="0"
       y1="0"
       x2="1"
       y2="0"
       gradientUnits="userSpaceOnUse"
       gradientTransform="matrix(1537.5615,0,0,-1537.5615,0,910.44977)"
       spreadMethod="pad"
       id="linearGradient3469">
      <stop
         style="stop-opacity:1;stop-color:#ffffff"
         offset="0"
         id="stop3463" />
      <stop
         style="stop-opacity:1;stop-color:#ffffff"
         offset="0.821429"
         id="stop3465" />
      <stop
         style="stop-opacity:1;stop-color:#ffffff"
         offset="1"
         id="stop3467" />
    </linearGradient>
    <clipPath
       clipPathUnits="userSpaceOnUse"
       id="clipPath3483">
      <path
         d="m 524.061,472.174 h 4.863 v 21.942 2.786 l 23.725,-25.289 v 37.065 h -4.863 v -20.328 -4.325 l -23.725,24.947 z m -140.91,0.098 h 5.204 l 2.688,5.986 h 7.713 7.729 l 2.687,-5.986 h 5.205 l -15.613,36.675 z m 12.648,17.251 c 1.002,2.622 1.996,5.082 2.989,7.379 v 0 c 0.978,-2.297 1.963,-4.757 2.949,-7.379 v 0 c 0.977,-2.623 1.971,-5.075 2.964,-7.355 v 0 h -5.945 -5.929 c 0.977,2.28 1.971,4.732 2.972,7.355 m 183.037,18.031 c -2.199,-0.912 -4.186,-2.271 -5.962,-4.08 v 0 c -1.856,-1.873 -3.208,-3.869 -4.055,-5.986 v 0 c -0.897,-2.167 -1.345,-4.528 -1.345,-7.086 v 0 c 0,-2.574 0.448,-4.936 1.345,-7.086 v 0 c 0.847,-2.134 2.199,-4.121 4.055,-5.961 v 0 c 1.792,-1.808 3.779,-3.16 5.962,-4.057 v 0 c 2.118,-0.895 4.471,-1.343 7.061,-1.343 v 0 c 2.574,0 4.928,0.448 7.062,1.343 v 0 c 2.15,0.897 4.145,2.249 5.986,4.057 v 0 c 1.988,1.954 3.42,4.227 4.301,6.816 v 0 c 0.765,2.2 1.115,4.586 1.05,7.16 v 0 h -16.81 -0.416 v -4.521 h 9.7 2.419 l -1.026,-2.174 c -0.488,-1.026 -1.099,-1.98 -1.832,-2.859 v 0 c -0.701,-0.864 -1.532,-1.653 -2.492,-2.37 v 0 c -1.19,-0.864 -2.419,-1.491 -3.69,-1.881 v 0 c -1.352,-0.44 -2.745,-0.66 -4.178,-0.66 v 0 c -1.824,0 -3.551,0.334 -5.18,1.002 v 0 c -1.596,0.651 -3.054,1.645 -4.373,2.98 v 0 c -1.32,1.336 -2.305,2.794 -2.957,4.374 v 0 c -0.668,1.629 -1.002,3.356 -1.002,5.18 v 0 c 0,1.808 0.334,3.535 1.002,5.18 v 0 c 0.652,1.564 1.637,3.022 2.957,4.373 v 0 c 1.335,1.336 2.793,2.33 4.373,2.981 v 0 c 1.548,0.668 3.274,1.002 5.18,1.002 v 0 c 1.857,0 3.575,-0.334 5.155,-1.002 v 0 c 1.173,-0.505 2.257,-1.156 3.25,-1.955 v 0 l 3.47,3.495 c -0.619,0.489 -1.157,0.887 -1.613,1.197 v 0 c -1.026,0.684 -2.085,1.263 -3.176,1.734 v 0 c -1.06,0.457 -2.208,0.815 -3.445,1.076 v 0 c -1.173,0.244 -2.403,0.366 -3.69,0.366 v 0 h -1.099 l -0.025,0.049 c -2.183,-0.13 -4.17,-0.578 -5.962,-1.344 m -75.17,-35.282 h 4.862 v 36.333 h -4.862 z m -35.202,36.333 v -36.333 h 20.671 v 4.789 h -14.294 -1.515 v 1.539 30.005 z m -32.886,0 h -6.377 v -12.266 -13.781 -10.286 h 4.863 v 10.286 1.516 h 1.514 5.913 c 1.694,0 3.267,0.292 4.716,0.879 v 0 c 1.449,0.603 2.786,1.507 4.007,2.712 v 0 c 1.205,1.206 2.11,2.517 2.712,3.934 v 0 c 0.587,1.434 0.88,3.006 0.88,4.716 v 0 c 0,1.694 -0.293,3.266 -0.88,4.716 v 0 c -0.618,1.45 -1.531,2.769 -2.736,3.958 v 0 c -1.238,1.221 -2.566,2.126 -3.983,2.712 v 0 c -1.433,0.603 -3.006,0.904 -4.716,0.904 v 0 z m -1.514,-18.203 v 5.937 5.937 1.515 h 1.514 5.913 c 1.043,0 2.004,-0.187 2.883,-0.561 v 0 c 0.88,-0.375 1.679,-0.929 2.395,-1.662 v 0 c 0.75,-0.798 1.287,-1.604 1.613,-2.419 v 0 c 0.374,-0.847 0.561,-1.792 0.561,-2.834 v 0 c 0,-1.075 -0.187,-2.028 -0.561,-2.859 v 0 c -0.375,-0.88 -0.913,-1.686 -1.613,-2.419 v 0 c -0.766,-0.749 -1.572,-1.295 -2.419,-1.637 v 0 c -0.863,-0.358 -1.816,-0.537 -2.859,-0.537 v 0 l -5.913,0.024 h -1.514 z m -69.686,18.203 -6.304,-10.971 -1.319,-2.297 -1.32,2.297 -6.28,10.971 h -5.57 l 9.92,-17.397 0.44,-0.732 -0.44,-0.758 -9.944,-17.446 5.57,-0.024 6.304,10.995 1.32,2.321 1.319,-2.321 6.304,-10.971 h 5.571 l -9.97,17.422 -0.439,0.757 0.439,0.757 9.97,17.397 z"
         id="path3481" />
    </clipPath>
    <clipPath
       clipPathUnits="userSpaceOnUse"
       id="clipPath3495">
      <path
         d="M 0,1080 H 1920 V 0 H 0 Z"
         id="path3493" />
    </clipPath>
    <clipPath
       clipPathUnits="userSpaceOnUse"
       id="clipPath1094">
      <path
         d="M 0,328.818 H 640.628 V 0 H 0 Z"
         id="path1092" />
    </clipPath>
    <clipPath
       clipPathUnits="userSpaceOnUse"
       id="clipPath1102">
      <path
         d="M 372.092,214.289 H 598.368 V 125.1 H 372.092 Z"
         id="path1100" />
    </clipPath>
    <clipPath
       clipPathUnits="userSpaceOnUse"
       id="clipPath1122">
      <path
         d="M 0,328.818 H 640.628 V 0 H 0 Z"
         id="path1120" />
    </clipPath>
    <clipPath
       clipPathUnits="userSpaceOnUse"
       id="clipPath1198">
      <path
         d="M 0,328.818 H 640.628 V 0 H 0 Z"
         id="path1196" />
    </clipPath>
    <clipPath
       clipPathUnits="userSpaceOnUse"
       id="clipPath1214">
      <path
         d="m 93.895,210.535 h 1.714 v 7.732 0.981 l 8.36,-8.911 v 13.061 h -1.714 v -7.163 -1.524 l -8.36,8.79 z m -49.652,0.035 h 1.833 l 0.948,2.109 h 2.717 2.724 l 0.947,-2.109 h 1.834 l -5.501,12.923 z m 4.457,6.078 c 0.353,0.924 0.703,1.791 1.053,2.6 v 0 c 0.345,-0.809 0.692,-1.676 1.039,-2.6 v 0 c 0.344,-0.923 0.694,-1.787 1.044,-2.591 v 0 h -2.095 -2.089 c 0.345,0.804 0.695,1.668 1.048,2.591 m 64.497,6.354 c -0.775,-0.321 -1.476,-0.8 -2.101,-1.437 v 0 c -0.654,-0.661 -1.131,-1.364 -1.429,-2.11 v 0 c -0.316,-0.763 -0.474,-1.596 -0.474,-2.497 v 0 c 0,-0.907 0.158,-1.739 0.474,-2.496 v 0 c 0.298,-0.752 0.775,-1.453 1.429,-2.102 v 0 c 0.631,-0.636 1.331,-1.113 2.101,-1.429 v 0 c 0.746,-0.315 1.575,-0.473 2.487,-0.473 v 0 c 0.907,0 1.737,0.158 2.489,0.473 v 0 c 0.757,0.316 1.46,0.793 2.109,1.429 v 0 c 0.7,0.69 1.205,1.49 1.516,2.402 v 0 c 0.269,0.775 0.392,1.617 0.37,2.523 v 0 h -5.924 -0.146 v -1.592 h 3.418 0.853 l -0.362,-0.767 c -0.173,-0.362 -0.388,-0.697 -0.646,-1.007 v 0 c -0.247,-0.304 -0.539,-0.582 -0.878,-0.835 v 0 c -0.419,-0.304 -0.853,-0.526 -1.3,-0.663 v 0 c -0.476,-0.155 -0.968,-0.233 -1.473,-0.233 v 0 c -0.642,0 -1.251,0.118 -1.825,0.353 v 0 c -0.562,0.23 -1.076,0.58 -1.541,1.051 v 0 c -0.465,0.47 -0.812,0.984 -1.042,1.541 v 0 c -0.235,0.575 -0.353,1.183 -0.353,1.825 v 0 c 0,0.638 0.118,1.246 0.353,1.826 v 0 c 0.23,0.551 0.577,1.064 1.042,1.54 v 0 c 0.471,0.471 0.984,0.821 1.541,1.051 v 0 c 0.545,0.236 1.154,0.354 1.825,0.354 v 0 c 0.655,0 1.26,-0.118 1.817,-0.354 v 0 c 0.414,-0.178 0.795,-0.407 1.145,-0.689 v 0 l 1.222,1.231 c -0.217,0.172 -0.406,0.314 -0.567,0.423 v 0 c -0.362,0.241 -0.735,0.444 -1.12,0.611 v 0 c -0.373,0.161 -0.778,0.287 -1.213,0.379 v 0 c -0.414,0.086 -0.847,0.128 -1.301,0.128 v 0 h -0.387 l -0.009,0.018 c -0.769,-0.046 -1.47,-0.204 -2.1,-0.474 M 86.709,210.57 h 1.714 v 12.803 H 86.709 Z M 74.305,223.373 V 210.57 h 7.284 v 1.688 h -5.038 -0.533 v 0.542 10.573 z m -11.588,0 h -2.248 v -4.323 -4.855 -3.625 h 1.714 v 3.625 0.533 h 0.534 2.083 c 0.598,0 1.151,0.104 1.662,0.311 v 0 c 0.511,0.212 0.981,0.53 1.412,0.955 v 0 c 0.424,0.425 0.743,0.887 0.955,1.387 v 0 c 0.207,0.504 0.311,1.058 0.311,1.661 v 0 c 0,0.597 -0.104,1.151 -0.311,1.661 v 0 c -0.218,0.512 -0.539,0.976 -0.964,1.395 v 0 c -0.436,0.431 -0.904,0.749 -1.403,0.956 v 0 c -0.506,0.213 -1.059,0.319 -1.662,0.319 v 0 z m -0.534,-6.415 v 2.092 2.093 0.533 h 0.534 2.083 c 0.367,0 0.707,-0.065 1.016,-0.198 v 0 c 0.311,-0.132 0.591,-0.326 0.844,-0.585 v 0 c 0.264,-0.281 0.453,-0.566 0.568,-0.852 v 0 c 0.133,-0.299 0.198,-0.632 0.198,-0.999 v 0 c 0,-0.379 -0.065,-0.715 -0.198,-1.007 v 0 c -0.132,-0.311 -0.321,-0.594 -0.568,-0.852 v 0 c -0.27,-0.265 -0.554,-0.457 -0.852,-0.577 v 0 c -0.304,-0.127 -0.641,-0.19 -1.008,-0.19 v 0 l -2.083,0.009 h -0.534 z m -24.555,6.415 -2.222,-3.867 -0.464,-0.809 -0.466,0.809 -2.212,3.867 h -1.963 l 3.496,-6.13 0.155,-0.258 -0.155,-0.268 -3.505,-6.147 1.963,-0.009 2.221,3.875 0.466,0.818 0.464,-0.818 2.222,-3.866 h 1.963 l -3.513,6.138 -0.155,0.268 0.155,0.267 3.513,6.13 z"
         id="path1212" />
    </clipPath>
    <clipPath
       clipPathUnits="userSpaceOnUse"
       id="clipPath1226">
      <path
         d="M 0,328.818 H 640.628 V 0 H 0 Z"
         id="path1224" />
    </clipPath>
  </defs>
  <sodipodi:namedview
     id="base"
     pagecolor="#ffffff"
     bordercolor="#666666"
     borderopacity="1.0"
     inkscape:pageopacity="0.0"
     inkscape:pageshadow="2"
     inkscape:zoom="1.4"
     inkscape:cx="237.58254"
     inkscape:cy="87.042678"
     inkscape:document-units="mm"
     inkscape:current-layer="layer1"
     inkscape:document-rotation="0"
     showgrid="false"
     fit-margin-top="0"
     fit-margin-left="0"
     fit-margin-right="0"
     fit-margin-bottom="0"
     inkscape:window-width="2626"
     inkscape:window-height="1376"
     inkscape:window-x="520"
     inkscape:window-y="520"
     inkscape:window-maximized="0" />
  <metadata
     id="metadata5">
    <rdf:RDF>
      <cc:Work
         rdf:about="">
        <dc:format>image/svg+xml</dc:format>
        <dc:type
           rdf:resource="http://purl.org/dc/dcmitype/StillImage" />
        <dc:title></dc:title>
      </cc:Work>
    </rdf:RDF>
  </metadata>
  <g
     id="layer1"
     transform="translate(-53.037659,-54.094351)">
    <g
       id="g3489"
       transform="matrix(0.35277777,0,0,-0.35277777,-67.093946,318.65917)">
      <g
         id="g3491"
         clip-path="url(#clipPath3495)">
        <g
           id="g3497"
           transform="translate(384.1498,523.9041)">
          <path
             d="m 0,0 h 29.22 c 8.97,0 17.292,4.674 21.96,12.334 L 89.881,75.849 H 61.817 c -9.887,0 -19.062,-5.144 -24.219,-13.58 L -0.224,0.4 C -0.331,0.225 -0.205,0 0,0"
             style="fill:#66b6c1;fill-opacity:1;fill-rule:nonzero;stroke:none"
             id="path3499" />
        </g>
        <g
           id="g3501"
           transform="translate(561.447,743.5074)">
          <path
             d="m 0,0 -35.834,-58.944 c -4.614,-7.589 -12.809,-12.269 -21.69,-12.388 l -29.892,-0.398 36.57,59.235 C -46.051,-4.728 -37.575,0 -28.448,0 Z"
             style="fill:#a2c554;fill-opacity:1;fill-rule:nonzero;stroke:none"
             id="path3503" />
        </g>
        <g
           id="g3505"
           transform="translate(460.4413,645.1888)">
          <path
             d="m 0,0 13.555,26.519 -35.571,58.428 c -5.055,8.304 -14.073,13.372 -23.795,13.372 H -73.583 L 0.892,-24.121 C -3.573,-16.781 -3.91,-7.65 0,0"
             style="fill:#a2c554;fill-opacity:1;fill-rule:nonzero;stroke:none"
             id="path3507" />
        </g>
        <g
           id="g3509"
           transform="translate(461.3336,621.0668)">
          <path
             d="M 0,0 0.052,-0.086 -0.001,0.001 C -0.001,0.001 0,0 0,0"
             style="fill:#a2c554;fill-opacity:1;fill-rule:nonzero;stroke:none"
             id="path3511" />
        </g>
        <g
           id="g3513"
           transform="translate(481.3918,659.5593)">
          <path
             d="M 0,0 -7.396,12.149 -20.951,-14.37 c -3.91,-7.65 -3.572,-16.781 0.892,-24.122 l 0.053,-0.086 52.06,-85.589 c 4.339,-7.134 12.084,-11.488 20.434,-11.488 h 30.097 z"
             style="fill:#66b6c1;fill-opacity:1;fill-rule:nonzero;stroke:none"
             id="path3515" />
        </g>
      </g>
    </g>
  </g>
</svg>
